<?xml version="1.0" encoding="UTF-8" standalone="no"?>
<svg
   width="400"
   height="150"
   version="1.1"
   id="svg5"
   sodipodi:docname="frecuencia_ciclo.svg"
   inkscape:export-filename="diferentes_frecuencias.png"
   inkscape:export-xdpi="96"
   inkscape:export-ydpi="96"
   inkscape:version="1.3.2 (091e20ef0f, 2023-11-25, custom)"
   xmlns:inkscape="http://www.inkscape.org/namespaces/inkscape"
   xmlns:sodipodi="http://sodipodi.sourceforge.net/DTD/sodipodi-0.dtd"
   xmlns="http://www.w3.org/2000/svg"
   xmlns:svg="http://www.w3.org/2000/svg">
  <defs
     id="defs5">
    <marker
       style="overflow:visible"
       id="ArrowWideRounded"
       refX="0"
       refY="0"
       orient="auto-start-reverse"
       inkscape:stockid="Wide, rounded arrow"
       markerWidth="1"
       markerHeight="1"
       viewBox="0 0 1 1"
       inkscape:isstock="true"
       inkscape:collect="always"
       preserveAspectRatio="xMidYMid">
      <path
         style="fill:none;stroke:context-stroke;stroke-width:1;stroke-linecap:round"
         d="M 3,-3 0,0 3,3"
         transform="rotate(180,0.125,0)"
         sodipodi:nodetypes="ccc"
         id="path2" />
    </marker>
    <marker
       style="overflow:visible"
       id="ArrowWide"
       refX="0"
       refY="0"
       orient="auto-start-reverse"
       inkscape:stockid="Wide arrow"
       markerWidth="1"
       markerHeight="1"
       viewBox="0 0 1 1"
       inkscape:isstock="true"
       inkscape:collect="always"
       preserveAspectRatio="xMidYMid">
      <path
         style="fill:none;stroke:context-stroke;stroke-width:1;stroke-linecap:butt"
         d="M 3,-3 0,0 3,3"
         transform="rotate(180,0.125,0)"
         sodipodi:nodetypes="ccc"
         id="path1" />
    </marker>
  </defs>
  <sodipodi:namedview
     id="namedview5"
     pagecolor="#ffffff"
     bordercolor="#000000"
     borderopacity="0.25"
     inkscape:showpageshadow="2"
     inkscape:pageopacity="0.0"
     inkscape:pagecheckerboard="0"
     inkscape:deskcolor="#d1d1d1"
     inkscape:zoom="2.1273303"
     inkscape:cx="208.24223"
     inkscape:cy="61.814567"
     inkscape:window-width="2560"
     inkscape:window-height="1389"
     inkscape:window-x="0"
     inkscape:window-y="27"
     inkscape:window-maximized="1"
     inkscape:current-layer="svg5" />
  <path
     d="m -758.05159,53.69132 c 9.72624,22.412622 19.45248,44.825241 30.53191,44.825241 11.07944,-3.9e-4 20.80568,-22.412619 30.5319,-44.825241 9.72623,-22.412617 19.45245,-44.8252327 30.53191,-44.8252327 11.07943,3.81e-4 20.80567,22.4126157 30.5319,44.8252327 9.72623,22.412622 19.45246,44.825241 30.5319,44.825241 11.07944,0 20.80567,-22.412619 30.53191,-44.825241 9.72623,-22.412617 19.45245,-44.8252327 30.5319,-44.8252327 11.07944,3.81e-4 20.80568,22.4126157 30.5319,44.8252327 9.72623,22.412622 19.45246,44.825241 30.53191,44.825241 11.07944,-3.9e-4 20.80567,-22.412619 30.5319,-44.825241 9.72624,-22.412617 19.45245,-44.8252327 30.53191,-44.8252327 11.07943,3.81e-4 20.80567,22.4126157 30.5319,44.8252327 9.72622,22.412622 19.45246,44.825241 30.5319,44.825241 11.07945,0 20.80567,-22.412619 30.5319,-44.825241 9.72623,-22.412617 19.45246,-44.8252327 30.53191,-44.8252327 11.07944,0 20.80568,22.4126157 30.53191,44.8252327 9.72622,22.412622 19.45245,44.825241 30.5319,44.825241 11.07944,-3.9e-4 20.80567,-22.412619 30.5319,-44.825241 9.72623,-22.412617 19.45246,-44.8252327 30.53191,-44.8252327 11.07943,3.81e-4 20.80567,22.4126157 30.53189,44.8252327 9.72623,22.412622 19.45247,44.825241 30.5319,44.825241 11.07946,-3.9e-4 20.805695,-22.412619 30.53192,-44.825241 9.726224,-22.412617 19.452457,-44.8252327 30.531899,-44.8252327 11.079449,3.81e-4 20.805681,22.4126157 30.531904,44.8252327 9.72623,22.412622 19.4524611,44.825241 30.5319054,44.825241 C 16.325452,98.516171 26.051682,76.103942 35.777911,53.69132 45.504141,31.278703 55.230372,8.8660873 66.309815,8.8660873 c 11.079445,0 20.805674,22.4126157 30.531904,44.8252327 9.726221,22.412622 19.452451,44.825241 30.531901,44.825241 11.07944,0 20.80567,-22.412619 30.5319,-44.825241 9.72624,-22.412617 19.45246,-44.8252327 30.53191,-44.8252327 11.07944,3.81e-4 20.80567,22.4126157 30.57419,44.8252327 9.72623,22.412622 19.45245,44.825241 30.53191,44.825241 11.07943,0 20.80567,-22.412619 30.5319,-44.825241 9.72623,-22.412617 19.45246,-44.8252327 30.5319,-44.8252327 11.07945,3.81e-4 20.80567,22.4126157 30.5319,44.8252327 9.72623,22.412622 19.45246,44.825241 30.53191,44.825241 11.07944,-3.9e-4 20.80568,-22.412619 30.5319,-44.825241 9.72622,-22.412617 19.45246,-44.8252327 30.53191,-44.8252327 11.07944,3.81e-4 20.80567,22.4126157 30.5319,44.8252327 9.72623,22.412622 19.45246,44.825241 30.53191,44.825241 11.07943,-3.9e-4 20.80567,-22.412619 30.5319,-44.825241 9.72622,-22.412617 19.45246,-44.8252327 30.5319,-44.8252327 11.07945,3.81e-4 20.80568,22.4126157 30.5319,44.8252327 9.72623,22.412622 19.45246,44.825241 30.53191,44.825241 11.07944,-3.9e-4 20.80567,-22.412619 30.5319,-44.825241 9.72623,-22.412617 19.45246,-44.8252327 30.5319,-44.8252327 11.07945,3.81e-4 20.80568,22.4126157 30.5319,44.8252327 9.72624,22.412622 19.45247,44.825241 30.53191,44.825241 11.07945,0 20.80568,-22.412619 30.5319,-44.825241 9.72623,-22.412617 19.45247,-44.8252327 30.5319,-44.8252327 11.07946,3.81e-4 20.80569,22.4126157 30.53192,44.8252327 9.72624,22.412622 19.45249,44.825241 30.53191,44.825241 11.07944,-3.9e-4 20.80568,-22.412619 30.53192,-44.825241 9.72624,-22.412617 19.45248,-44.8252327 30.53187,-44.8252327 11.07943,3.81e-4 20.80569,22.4126157 30.53195,44.8252327 9.72617,22.412622 19.45243,44.825241 30.53195,44.825241 11.07942,-3.9e-4 20.8056,-22.412619 30.5318,-44.825241 9.7262,-22.412617 19.4525,-44.8252327 30.5319,-44.8252327 11.0794,3.81e-4 20.8057,22.4126157 30.532,44.8252327 9.7261,22.412622 19.4524,44.825241 30.5318,44.825241 11.0795,-3.9e-4 20.8057,-22.412619 30.532,-44.825241 9.7262,-22.412617 19.4524,-44.8252327 30.5318,-44.8252327 11.0795,3.81e-4 20.8057,22.4126157 30.532,44.8252327"
     stroke="#dd00da"
     id="path5"
     style="fill:none;stroke-width:4.2288" />
  <path
     style="fill:none;stroke-width:0.901;stroke-linecap:square;stroke-dasharray:2.70300007;stroke:#000000;stroke-opacity:1;stroke-dashoffset:0"
     d="m 126.69661,101.34642 v 32.50334"
     id="path6" />
  <path
     style="fill:none;stroke:#000000;stroke-width:0.901;stroke-linecap:square;stroke-dasharray:2.70300007;stroke-dashoffset:0;stroke-opacity:1"
     d="m 248.69661,101.34642 v 32.50334"
     id="path7" />
  <path
     style="fill:none;stroke:#000000;stroke-width:0.901;stroke-linecap:square;stroke-dasharray:none;stroke-dashoffset:0;stroke-opacity:1;marker-start:url(#ArrowWide);marker-end:url(#ArrowWideRounded)"
     d="M 128.02733,126.73796 H 247.45725"
     id="path8"
     sodipodi:nodetypes="cc" />
  <text
     xml:space="preserve"
     style="font-weight:bold;font-family:'Bitstream Vera Sans Mono';-inkscape-font-specification:'Bitstream Vera Sans Mono Bold';text-align:center;text-anchor:middle;fill:#000000;fill-opacity:1;stroke:none;stroke-width:0.901;stroke-linecap:square;stroke-dasharray:2.703;stroke-dashoffset:0;stroke-opacity:1"
     x="187.58409"
     y="142.23447"
     id="text8"><tspan
       sodipodi:role="line"
       id="tspan8"
       x="187.58409"
       y="142.23447">Ciclo</tspan></text>
</svg>
