<?xml version="1.0" encoding="UTF-8" standalone="no"?>
<!-- Created with Inkscape (http://www.inkscape.org/) -->

<svg
   width="158.75mm"
   height="239.14343mm"
   viewBox="0 0 158.75 239.14343"
   version="1.1"
   id="svg1"
   inkscape:version="1.4 (e7c3feb100, 2024-10-09)"
   sodipodi:docname="funcionamiento_sockets.svg"
   inkscape:export-filename="arquitectura_capas.png"
   inkscape:export-xdpi="96"
   inkscape:export-ydpi="96"
   xml:space="preserve"
   xmlns:inkscape="http://www.inkscape.org/namespaces/inkscape"
   xmlns:sodipodi="http://sodipodi.sourceforge.net/DTD/sodipodi-0.dtd"
   xmlns="http://www.w3.org/2000/svg"
   xmlns:svg="http://www.w3.org/2000/svg"><sodipodi:namedview
     id="namedview1"
     pagecolor="#ffffff"
     bordercolor="#000000"
     borderopacity="0.25"
     inkscape:showpageshadow="2"
     inkscape:pageopacity="0.0"
     inkscape:pagecheckerboard="0"
     inkscape:deskcolor="#d1d1d1"
     inkscape:document-units="mm"
     inkscape:zoom="0.86781817"
     inkscape:cx="125.60235"
     inkscape:cy="483.97235"
     inkscape:window-width="2560"
     inkscape:window-height="1389"
     inkscape:window-x="0"
     inkscape:window-y="27"
     inkscape:window-maximized="1"
     inkscape:current-layer="layer1" /><defs
     id="defs1"><marker
       style="overflow:visible"
       id="marker44"
       refX="0"
       refY="0"
       orient="auto-start-reverse"
       inkscape:stockid="Concave triangle arrow"
       markerWidth="1"
       markerHeight="1"
       viewBox="0 0 1 1"
       inkscape:isstock="true"
       inkscape:collect="always"
       preserveAspectRatio="xMidYMid"><path
         transform="scale(0.7)"
         d="M -2,-4 9,0 -2,4 c 2,-2.33 2,-5.66 0,-8 z"
         style="fill:context-stroke;fill-rule:evenodd;stroke:none"
         id="path44" /></marker><marker
       style="overflow:visible"
       id="ConcaveTriangle"
       refX="0"
       refY="0"
       orient="auto-start-reverse"
       inkscape:stockid="Concave triangle arrow"
       markerWidth="1"
       markerHeight="1"
       viewBox="0 0 1 1"
       inkscape:isstock="true"
       inkscape:collect="always"
       preserveAspectRatio="xMidYMid"><path
         transform="scale(0.7)"
         d="M -2,-4 9,0 -2,4 c 2,-2.33 2,-5.66 0,-8 z"
         style="fill:context-stroke;fill-rule:evenodd;stroke:none"
         id="path40" /></marker></defs><g
     inkscape:label="Capa 1"
     inkscape:groupmode="layer"
     id="layer1"
     transform="translate(-18.910075,-70.742072)"><g
       id="g84"
       transform="matrix(0.85822511,0,0,0.85822511,2.6809737,10.029449)"><g
         id="g82"
         transform="matrix(0.95138831,0,0,0.95138831,5.8503129,21.335421)"><rect
           style="fill:#e6e6e6;fill-opacity:1;stroke:none;stroke-width:0.417918;stroke-linecap:square;stroke-dasharray:none"
           id="rect44"
           width="194.42616"
           height="156.75043"
           x="13.727057"
           y="51.93111" /><g
           id="g81"><g
             id="g2"
             transform="matrix(0.6343091,0,0,0.6343091,38.315995,70.606535)"><path
               style="fill:#010002"
               d="m 32.335,11.606 h -6.533 v -1.009 h 6.533 z m 0,0.658 h -6.533 v 1.011 h 6.533 z M 32.331,7.687 H 25.808 V 9.91 h 6.523 z m 2.087,-2.39 v 23.827 c -10e-4,0.357 -0.292,0.648 -0.65,0.648 h -9.397 c -0.359,0 -0.649,-0.291 -0.649,-0.649 V 5.297 c 0,-0.358 0.29,-0.65 0.649,-0.65 h 9.397 c 0.359,0 0.65,0.292 0.65,0.65 z m -1.299,0.647 h -8.1 v 22.53 h 8.1 z m -0.784,7.988 h -6.533 v 1.008 h 6.533 z m -1.063,7.518 c 0,1.162 -0.939,2.099 -2.097,2.099 -1.16,0 -2.099,-0.938 -2.099,-2.099 0,-1.158 0.94,-2.098 2.099,-2.098 1.158,0 2.097,0.941 2.097,2.098 z m -0.757,0 c 0,-0.739 -0.6,-1.341 -1.341,-1.341 -0.742,0 -1.342,0.601 -1.342,1.341 0,0.74 0.6,1.34 1.342,1.34 0.741,0 1.341,-0.6 1.341,-1.34 z M 21.937,9.218 v 13.505 c 0,0.814 -0.655,1.473 -1.461,1.473 H 13.18 c 0,0 -0.414,2.948 2.212,2.948 v 1.475 H 13.18 8.758 6.546 v -1.473 c 2.529,0 2.212,-2.948 2.212,-2.948 H 1.465 C 0.656,24.198 0,23.539 0,22.725 V 9.218 C 0,8.404 0.656,7.748 1.465,7.748 h 19.01 c 0.807,0 1.462,0.656 1.462,1.47 z m -9.605,13.176 c 0,-0.698 -0.566,-1.263 -1.264,-1.263 -0.699,0 -1.266,0.565 -1.266,1.263 0,0.698 0.566,1.265 1.266,1.265 0.699,0 1.264,-0.567 1.264,-1.265 z M 20.371,9.311 H 1.568 v 11.387 h 18.802 10e-4 c 0,0 0,-11.387 0,-11.387 z m -9.29,12.292 c -0.434,0 -0.785,0.352 -0.785,0.785 0,0.433 0.352,0.785 0.785,0.785 0.433,0 0.785,-0.352 0.785,-0.785 0,-0.433 -0.351,-0.785 -0.785,-0.785 z"
               id="path1" /></g><g
             style="fill:#000000"
             id="g5"
             transform="matrix(0.03645249,0,0,0.03645249,165.33073,73.154473)"><g
               id="g13">
	<path
   d="m 471.5,167 c 21.78,0 39.5,-17.72 39.5,-39.5 v -64 C 511,41.72 493.28,24 471.5,24 H 39.5 C 17.72,24 0,41.72 0,63.5 v 64 C 0,149.28 17.72,167 39.5,167 H 248 v 17 H 39.5 C 17.72,184 0,201.72 0,223.5 v 64 C 0,309.28 17.72,327 39.5,327 H 248 v 17 H 39.5 C 17.72,344 0,361.72 0,383.5 v 64 C 0,469.28 17.72,487 39.5,487 h 432 c 21.78,0 39.5,-17.72 39.5,-39.5 v -64 C 511,361.72 493.28,344 471.5,344 H 263 v -17 h 208.5 c 21.78,0 39.5,-17.72 39.5,-39.5 v -64 C 511,201.72 493.28,184 471.5,184 H 263 V 167 Z M 496,383.5 v 64 c 0,13.51 -10.991,24.5 -24.5,24.5 H 39.5 C 25.991,472 15,461.01 15,447.5 v -64 C 15,369.99 25.991,359 39.5,359 h 432 c 13.509,0 24.5,10.99 24.5,24.5 z m 0,-160 v 64 c 0,13.51 -10.991,24.5 -24.5,24.5 H 39.5 C 25.991,312 15,301.01 15,287.5 v -64 C 15,209.99 25.991,199 39.5,199 h 432 c 13.509,0 24.5,10.99 24.5,24.5 z m -481,-96 v -64 C 15,49.99 25.991,39 39.5,39 h 432 c 13.509,0 24.5,10.99 24.5,24.5 v 64 c 0,13.51 -10.991,24.5 -24.5,24.5 H 39.5 C 25.991,152 15,141.01 15,127.5 Z"
   id="path1-6" />
	<path
   d="M 71.5,64 C 54.131,64 40,78.131 40,95.5 40,112.869 54.131,127 71.5,127 88.869,127 103,112.869 103,95.5 103,78.131 88.869,64 71.5,64 Z m 0,48 C 62.402,112 55,104.598 55,95.5 55,86.402 62.402,79 71.5,79 80.598,79 88,86.402 88,95.5 88,104.598 80.598,112 71.5,112 Z"
   id="path2-0" />
	<path
   d="M 143.5,72 C 130.542,72 120,82.542 120,95.5 120,108.458 130.542,119 143.5,119 156.458,119 167,108.458 167,95.5 167,82.542 156.458,72 143.5,72 Z m 0,32 c -4.687,0 -8.5,-3.813 -8.5,-8.5 0,-4.687 3.813,-8.5 8.5,-8.5 4.687,0 8.5,3.813 8.5,8.5 0,4.687 -3.813,8.5 -8.5,8.5 z"
   id="path3" />
	<path
   d="M 71.5,224 C 54.131,224 40,238.131 40,255.5 40,272.869 54.131,287 71.5,287 88.869,287 103,272.869 103,255.5 103,238.131 88.869,224 71.5,224 Z m 0,48 C 62.402,272 55,264.598 55,255.5 55,246.402 62.402,239 71.5,239 c 9.098,0 16.5,7.402 16.5,16.5 0,9.098 -7.402,16.5 -16.5,16.5 z"
   id="path4" />
	<path
   d="m 143.5,232 c -12.958,0 -23.5,10.542 -23.5,23.5 0,12.958 10.542,23.5 23.5,23.5 12.958,0 23.5,-10.542 23.5,-23.5 0,-12.958 -10.542,-23.5 -23.5,-23.5 z m 0,32 c -4.687,0 -8.5,-3.813 -8.5,-8.5 0,-4.687 3.813,-8.5 8.5,-8.5 4.687,0 8.5,3.813 8.5,8.5 0,4.687 -3.813,8.5 -8.5,8.5 z"
   id="path5" />
	<path
   d="m 455.5,264 h -264 c -4.142,0 -7.5,3.357 -7.5,7.5 0,4.143 3.358,7.5 7.5,7.5 h 264 c 4.142,0 7.5,-3.357 7.5,-7.5 0,-4.143 -3.358,-7.5 -7.5,-7.5 z"
   id="path6" />
	<path
   d="m 184,239.5 c 0,4.143 3.358,7.5 7.5,7.5 h 264 c 4.142,0 7.5,-3.357 7.5,-7.5 0,-4.143 -3.358,-7.5 -7.5,-7.5 h -264 c -4.142,0 -7.5,3.357 -7.5,7.5 z"
   id="path7" />
	<path
   d="m 463,111.5 c 0,-4.143 -3.358,-7.5 -7.5,-7.5 h -264 c -4.142,0 -7.5,3.357 -7.5,7.5 0,4.143 3.358,7.5 7.5,7.5 h 264 c 4.142,0 7.5,-3.357 7.5,-7.5 z"
   id="path8" />
	<path
   d="m 191.5,87 h 264 c 4.142,0 7.5,-3.357 7.5,-7.5 0,-4.143 -3.358,-7.5 -7.5,-7.5 h -264 c -4.142,0 -7.5,3.357 -7.5,7.5 0,4.143 3.358,7.5 7.5,7.5 z"
   id="path9-6" />
	<path
   d="M 71.5,384 C 54.131,384 40,398.131 40,415.5 40,432.869 54.131,447 71.5,447 88.869,447 103,432.869 103,415.5 103,398.131 88.869,384 71.5,384 Z m 0,48 C 62.402,432 55,424.598 55,415.5 55,406.402 62.402,399 71.5,399 c 9.098,0 16.5,7.402 16.5,16.5 0,9.098 -7.402,16.5 -16.5,16.5 z"
   id="path10-2" />
	<path
   d="m 143.5,392 c -12.958,0 -23.5,10.542 -23.5,23.5 0,12.958 10.542,23.5 23.5,23.5 12.958,0 23.5,-10.542 23.5,-23.5 0,-12.958 -10.542,-23.5 -23.5,-23.5 z m 0,32 c -4.687,0 -8.5,-3.813 -8.5,-8.5 0,-4.687 3.813,-8.5 8.5,-8.5 4.687,0 8.5,3.813 8.5,8.5 0,4.687 -3.813,8.5 -8.5,8.5 z"
   id="path11-6" />
	<path
   d="m 455.5,424 h -264 c -4.142,0 -7.5,3.357 -7.5,7.5 0,4.143 3.358,7.5 7.5,7.5 h 264 c 4.142,0 7.5,-3.357 7.5,-7.5 0,-4.143 -3.358,-7.5 -7.5,-7.5 z"
   id="path12-1" />
	<path
   d="m 184,399.5 c 0,4.143 3.358,7.5 7.5,7.5 h 264 c 4.142,0 7.5,-3.357 7.5,-7.5 0,-4.143 -3.358,-7.5 -7.5,-7.5 h -264 c -4.142,0 -7.5,3.357 -7.5,7.5 z"
   id="path13" />
</g></g><text
             xml:space="preserve"
             style="font-weight:300;font-size:3.33717px;font-family:'Fira Code';-inkscape-font-specification:'Fira Code Light';fill:#ae9a9a;fill-opacity:1;stroke:none;stroke-width:0.125144;stroke-linecap:square"
             x="42.069736"
             y="95.437386"
             id="text5"><tspan
               sodipodi:role="line"
               id="tspan5"
               style="fill:#000000;fill-opacity:1;stroke-width:0.125144"
               x="42.069736"
               y="95.437386">Cliente</tspan></text><text
             xml:space="preserve"
             style="font-weight:300;font-size:3.33717px;font-family:'Fira Code';-inkscape-font-specification:'Fira Code Light';fill:#ae9a9a;fill-opacity:1;stroke:none;stroke-width:0.125144;stroke-linecap:square"
             x="166.47429"
             y="95.437386"
             id="text10"><tspan
               sodipodi:role="line"
               id="tspan10"
               style="fill:#000000;fill-opacity:1;stroke-width:0.125144"
               x="166.47429"
               y="95.437386">Servidor</tspan></text><rect
             style="fill:#bfffd4;fill-opacity:1;stroke:none;stroke-width:0.125144;stroke-linecap:square"
             id="rect10"
             width="52.861519"
             height="8.8102541"
             x="22.80106"
             y="100.46253" /><text
             xml:space="preserve"
             style="font-weight:300;font-size:3.33717px;font-family:'Fira Code';-inkscape-font-specification:'Fira Code Light';fill:#ae9a9a;fill-opacity:1;stroke:none;stroke-width:0.125144;stroke-linecap:square"
             x="41.151585"
             y="106.02625"
             id="text11"><tspan
               sodipodi:role="line"
               id="tspan11"
               style="fill:#000000;fill-opacity:1;stroke-width:0.125144"
               x="41.151585"
               y="106.02625">Socket()</tspan></text><rect
             style="fill:#c3c38d;fill-opacity:1;stroke:none;stroke-width:0.125144;stroke-linecap:square"
             id="rect11"
             width="52.861519"
             height="8.8102541"
             x="148.21361"
             y="100.46253" /><text
             xml:space="preserve"
             style="font-weight:300;font-size:3.33717px;font-family:'Fira Code';-inkscape-font-specification:'Fira Code Light';fill:#ae9a9a;fill-opacity:1;stroke:none;stroke-width:0.125144;stroke-linecap:square"
             x="166.56413"
             y="106.02625"
             id="text16"><tspan
               sodipodi:role="line"
               id="tspan16"
               style="fill:#000000;fill-opacity:1;stroke-width:0.125144"
               x="166.56413"
               y="106.02625">Socket()</tspan></text><rect
             style="fill:#c3c38d;fill-opacity:1;stroke:none;stroke-width:0.125144;stroke-linecap:square"
             id="rect18"
             width="52.861519"
             height="8.8102541"
             x="148.21361"
             y="111.04587" /><text
             xml:space="preserve"
             style="font-weight:300;font-size:3.33717px;font-family:'Fira Code';-inkscape-font-specification:'Fira Code Light';fill:#ae9a9a;fill-opacity:1;stroke:none;stroke-width:0.125144;stroke-linecap:square"
             x="168.5228"
             y="116.60959"
             id="text27"><tspan
               sodipodi:role="line"
               id="tspan27"
               style="fill:#000000;fill-opacity:1;stroke-width:0.125144"
               x="168.5228"
               y="116.60959">Bind()</tspan></text><rect
             style="fill:#c3c38d;fill-opacity:1;stroke:none;stroke-width:0.125144;stroke-linecap:square"
             id="rect27"
             width="52.861519"
             height="8.8102541"
             x="148.21361"
             y="121.62922" /><text
             xml:space="preserve"
             style="font-weight:300;font-size:3.33717px;font-family:'Fira Code';-inkscape-font-specification:'Fira Code Light';fill:#ae9a9a;fill-opacity:1;stroke:none;stroke-width:0.125144;stroke-linecap:square"
             x="166.40155"
             y="127.19292"
             id="text28"><tspan
               sodipodi:role="line"
               id="tspan28"
               style="fill:#000000;fill-opacity:1;stroke-width:0.125144"
               x="166.40155"
               y="127.19292">Listen()</tspan></text><rect
             style="fill:#bfffd4;fill-opacity:1;stroke:none;stroke-width:0.125144;stroke-linecap:square"
             id="rect28"
             width="52.861519"
             height="8.8102541"
             x="22.80106"
             y="132.21254" /><text
             xml:space="preserve"
             style="font-weight:300;font-size:3.33717px;font-family:'Fira Code';-inkscape-font-specification:'Fira Code Light';fill:#ae9a9a;fill-opacity:1;stroke:none;stroke-width:0.125144;stroke-linecap:square"
             x="40.092247"
             y="137.77626"
             id="text29"><tspan
               sodipodi:role="line"
               id="tspan29"
               style="fill:#000000;fill-opacity:1;stroke-width:0.125144"
               x="40.092247"
               y="137.77626">Connect()</tspan></text><rect
             style="fill:#c3c38d;fill-opacity:1;stroke:none;stroke-width:0.125144;stroke-linecap:square"
             id="rect29"
             width="52.861519"
             height="8.8102541"
             x="148.21361"
             y="132.21254" /><text
             xml:space="preserve"
             style="font-weight:300;font-size:3.33717px;font-family:'Fira Code';-inkscape-font-specification:'Fira Code Light';fill:#ae9a9a;fill-opacity:1;stroke:none;stroke-width:0.125144;stroke-linecap:square"
             x="166.6035"
             y="137.77626"
             id="text30"><tspan
               sodipodi:role="line"
               id="tspan30"
               style="fill:#000000;fill-opacity:1;stroke-width:0.125144"
               x="166.6035"
               y="137.77626">Accept()</tspan></text><rect
             style="fill:#bfffd4;fill-opacity:1;stroke:none;stroke-width:0.125144;stroke-linecap:square"
             id="rect30"
             width="52.861519"
             height="8.8102541"
             x="22.80106"
             y="142.79588" /><text
             xml:space="preserve"
             style="font-weight:300;font-size:3.33717px;font-family:'Fira Code';-inkscape-font-specification:'Fira Code Light';fill:#ae9a9a;fill-opacity:1;stroke:none;stroke-width:0.125144;stroke-linecap:square"
             x="43.205231"
             y="148.3596"
             id="text31"><tspan
               sodipodi:role="line"
               id="tspan31"
               style="fill:#000000;fill-opacity:1;stroke-width:0.125144"
               x="43.205231"
               y="148.3596">Send()</tspan></text><rect
             style="fill:#c3c38d;fill-opacity:1;stroke:none;stroke-width:0.125144;stroke-linecap:square"
             id="rect31"
             width="52.861519"
             height="8.8102541"
             x="148.21361"
             y="142.79588" /><text
             xml:space="preserve"
             style="font-weight:300;font-size:3.33717px;font-family:'Fira Code';-inkscape-font-specification:'Fira Code Light';fill:#ae9a9a;fill-opacity:1;stroke:none;stroke-width:0.125144;stroke-linecap:square"
             x="165.43207"
             y="148.3596"
             id="text32"><tspan
               sodipodi:role="line"
               id="tspan32"
               style="fill:#000000;fill-opacity:1;stroke-width:0.125144"
               x="165.43207"
               y="148.3596">Receive()</tspan></text><rect
             style="fill:#bfffd4;fill-opacity:1;stroke:none;stroke-width:0.125144;stroke-linecap:square"
             id="rect32"
             width="52.861519"
             height="8.8102541"
             x="22.80106"
             y="153.37923" /><text
             xml:space="preserve"
             style="font-weight:300;font-size:3.33717px;font-family:'Fira Code';-inkscape-font-specification:'Fira Code Light';fill:#ae9a9a;fill-opacity:1;stroke:none;stroke-width:0.125144;stroke-linecap:square"
             x="40.019512"
             y="158.94295"
             id="text33"><tspan
               sodipodi:role="line"
               id="tspan33"
               style="fill:#000000;fill-opacity:1;stroke-width:0.125144"
               x="40.019512"
               y="158.94295">Receive()</tspan></text><rect
             style="fill:#c3c38d;fill-opacity:1;stroke:none;stroke-width:0.125144;stroke-linecap:square"
             id="rect33"
             width="52.861519"
             height="8.8102541"
             x="148.21361"
             y="153.37923" /><text
             xml:space="preserve"
             style="font-weight:300;font-size:3.33717px;font-family:'Fira Code';-inkscape-font-specification:'Fira Code Light';fill:#ae9a9a;fill-opacity:1;stroke:none;stroke-width:0.125144;stroke-linecap:square"
             x="168.61778"
             y="158.94295"
             id="text34"><tspan
               sodipodi:role="line"
               id="tspan34"
               style="fill:#000000;fill-opacity:1;stroke-width:0.125144"
               x="168.61778"
               y="158.94295">Send()</tspan></text><text
             xml:space="preserve"
             style="font-weight:300;font-size:9.42948px;font-family:'Fira Code';-inkscape-font-specification:'Fira Code Light';fill:#ae9a9a;fill-opacity:1;stroke:none;stroke-width:0.353627;stroke-linecap:square"
             x="42.551392"
             y="171.1899"
             id="text35"><tspan
               sodipodi:role="line"
               id="tspan35"
               style="fill:#000000;fill-opacity:1;stroke-width:0.353627"
               x="42.551392"
               y="171.1899">...</tspan></text><rect
             style="fill:#bfffd4;fill-opacity:1;stroke:none;stroke-width:0.125144;stroke-linecap:square"
             id="rect36"
             width="52.861519"
             height="8.8102541"
             x="22.80106"
             y="174.54591" /><text
             xml:space="preserve"
             style="font-weight:300;font-size:3.33717px;font-family:'Fira Code';-inkscape-font-specification:'Fira Code Light';fill:#ae9a9a;fill-opacity:1;stroke:none;stroke-width:0.125144;stroke-linecap:square"
             x="42.145889"
             y="180.10963"
             id="text37"><tspan
               sodipodi:role="line"
               id="tspan37"
               style="fill:#000000;fill-opacity:1;stroke-width:0.125144"
               x="42.145889"
               y="180.10963">Close()</tspan></text><rect
             style="fill:#c3c38d;fill-opacity:1;stroke:none;stroke-width:0.125144;stroke-linecap:square"
             id="rect37"
             width="52.861519"
             height="8.8102541"
             x="148.21361"
             y="174.54591" /><text
             xml:space="preserve"
             style="font-weight:300;font-size:3.33717px;font-family:'Fira Code';-inkscape-font-specification:'Fira Code Light';fill:#ae9a9a;fill-opacity:1;stroke:none;stroke-width:0.125144;stroke-linecap:square"
             x="167.55844"
             y="180.10963"
             id="text38"><tspan
               sodipodi:role="line"
               id="tspan38"
               style="fill:#000000;fill-opacity:1;stroke-width:0.125144"
               x="167.55844"
               y="180.10963">Close()</tspan></text><rect
             style="fill:#c3c38d;fill-opacity:1;stroke:none;stroke-width:0.125144;stroke-linecap:square"
             id="rect38"
             width="52.861519"
             height="8.8102541"
             x="148.21361"
             y="185.12926" /><text
             xml:space="preserve"
             style="font-weight:300;font-size:3.33717px;font-family:'Fira Code';-inkscape-font-specification:'Fira Code Light';fill:#ae9a9a;fill-opacity:1;stroke:none;stroke-width:0.125144;stroke-linecap:square"
             x="166.40155"
             y="190.69298"
             id="text39"><tspan
               sodipodi:role="line"
               id="tspan39"
               style="fill:#000000;fill-opacity:1;stroke-width:0.125144"
               x="166.40155"
               y="190.69298">Listen()</tspan></text><path
             style="fill:#c3c38d;fill-opacity:1;stroke:#000000;stroke-width:0.396875;stroke-linecap:square;stroke-dasharray:none;marker-end:url(#ConcaveTriangle)"
             d="M 75.974507,136.66539 H 145.7742"
             id="path39"
             sodipodi:nodetypes="cc" /><path
             style="fill:#c3c38d;fill-opacity:1;stroke:#000000;stroke-width:0.396875;stroke-linecap:square;stroke-dasharray:none;marker-end:url(#ConcaveTriangle)"
             d="M 75.974507,147.24873 H 145.68965"
             id="path41"
             sodipodi:nodetypes="cc" /><path
             style="fill:#c3c38d;fill-opacity:1;stroke:#000000;stroke-width:0.396875;stroke-linecap:square;stroke-dasharray:none;marker-end:url(#ConcaveTriangle)"
             d="M 147.48118,157.80672 H 78.27336"
             id="path42"
             sodipodi:nodetypes="cc" /><path
             style="fill:#c3c38d;fill-opacity:1;stroke:#000000;stroke-width:0.396875;stroke-linecap:square;stroke-dasharray:none;marker-start:url(#marker44);marker-end:url(#ConcaveTriangle)"
             d="M 145.79018,178.9734 H 78.10426"
             id="path43"
             sodipodi:nodetypes="cc" /><text
             xml:space="preserve"
             style="font-weight:300;font-size:9.42948px;font-family:'Fira Code';-inkscape-font-specification:'Fira Code Light';fill:#ae9a9a;fill-opacity:1;stroke:none;stroke-width:0.353627;stroke-linecap:square"
             x="167.96394"
             y="171.1899"
             id="text44"><tspan
               sodipodi:role="line"
               id="tspan44"
               style="fill:#000000;fill-opacity:1;stroke-width:0.353627"
               x="167.96394"
               y="171.1899">...</tspan></text></g></g><text
         xml:space="preserve"
         style="font-weight:300;font-size:5.81274px;font-family:'Fira Code';-inkscape-font-specification:'Fira Code Light';fill:#ae9a9a;fill-opacity:1;stroke:none;stroke-width:0.217977;stroke-linecap:square"
         x="111.5167"
         y="78.686493"
         id="text45"><tspan
           sodipodi:role="line"
           id="tspan45"
           style="font-style:normal;font-variant:normal;font-weight:bold;font-stretch:normal;font-family:'Fira Code';-inkscape-font-specification:'Fira Code Bold';text-align:center;text-anchor:middle;fill:#000000;fill-opacity:1;stroke-width:0.217977"
           x="111.5167"
           y="78.686493">Stream socket</tspan><tspan
           sodipodi:role="line"
           style="font-style:normal;font-variant:normal;font-weight:bold;font-stretch:normal;font-family:'Fira Code';-inkscape-font-specification:'Fira Code Bold';text-align:center;text-anchor:middle;fill:#000000;fill-opacity:1;stroke-width:0.217977"
           x="111.5167"
           y="85.952415"
           id="tspan46">TCP</tspan></text><g
         id="g83"
         transform="matrix(0.95138831,0,0,0.95138831,5.8503129,21.335421)"><rect
           style="fill:#e6e6e6;fill-opacity:1;stroke:none;stroke-width:0.377337;stroke-linecap:square;stroke-dasharray:none"
           id="rect46"
           width="194.42616"
           height="127.78651"
           x="13.727057"
           y="217.03116" /><g
           id="g80"><g
             id="g46"
             transform="matrix(0.6343091,0,0,0.6343091,38.315994,235.70663)"><path
               style="fill:#010002"
               d="m 32.335,11.606 h -6.533 v -1.009 h 6.533 z m 0,0.658 h -6.533 v 1.011 h 6.533 z M 32.331,7.687 H 25.808 V 9.91 h 6.523 z m 2.087,-2.39 v 23.827 c -10e-4,0.357 -0.292,0.648 -0.65,0.648 h -9.397 c -0.359,0 -0.649,-0.291 -0.649,-0.649 V 5.297 c 0,-0.358 0.29,-0.65 0.649,-0.65 h 9.397 c 0.359,0 0.65,0.292 0.65,0.65 z m -1.299,0.647 h -8.1 v 22.53 h 8.1 z m -0.784,7.988 h -6.533 v 1.008 h 6.533 z m -1.063,7.518 c 0,1.162 -0.939,2.099 -2.097,2.099 -1.16,0 -2.099,-0.938 -2.099,-2.099 0,-1.158 0.94,-2.098 2.099,-2.098 1.158,0 2.097,0.941 2.097,2.098 z m -0.757,0 c 0,-0.739 -0.6,-1.341 -1.341,-1.341 -0.742,0 -1.342,0.601 -1.342,1.341 0,0.74 0.6,1.34 1.342,1.34 0.741,0 1.341,-0.6 1.341,-1.34 z M 21.937,9.218 v 13.505 c 0,0.814 -0.655,1.473 -1.461,1.473 H 13.18 c 0,0 -0.414,2.948 2.212,2.948 v 1.475 H 13.18 8.758 6.546 v -1.473 c 2.529,0 2.212,-2.948 2.212,-2.948 H 1.465 C 0.656,24.198 0,23.539 0,22.725 V 9.218 C 0,8.404 0.656,7.748 1.465,7.748 h 19.01 c 0.807,0 1.462,0.656 1.462,1.47 z m -9.605,13.176 c 0,-0.698 -0.566,-1.263 -1.264,-1.263 -0.699,0 -1.266,0.565 -1.266,1.263 0,0.698 0.566,1.265 1.266,1.265 0.699,0 1.264,-0.567 1.264,-1.265 z M 20.371,9.311 H 1.568 v 11.387 h 18.802 10e-4 c 0,0 0,-11.387 0,-11.387 z m -9.29,12.292 c -0.434,0 -0.785,0.352 -0.785,0.785 0,0.433 0.352,0.785 0.785,0.785 0.433,0 0.785,-0.352 0.785,-0.785 0,-0.433 -0.351,-0.785 -0.785,-0.785 z"
               id="path46" /></g><g
             style="fill:#000000"
             id="g60"
             transform="matrix(0.03645249,0,0,0.03645249,165.33076,238.25456)"><g
               id="g59">
	<path
   d="m 471.5,167 c 21.78,0 39.5,-17.72 39.5,-39.5 v -64 C 511,41.72 493.28,24 471.5,24 H 39.5 C 17.72,24 0,41.72 0,63.5 v 64 C 0,149.28 17.72,167 39.5,167 H 248 v 17 H 39.5 C 17.72,184 0,201.72 0,223.5 v 64 C 0,309.28 17.72,327 39.5,327 H 248 v 17 H 39.5 C 17.72,344 0,361.72 0,383.5 v 64 C 0,469.28 17.72,487 39.5,487 h 432 c 21.78,0 39.5,-17.72 39.5,-39.5 v -64 C 511,361.72 493.28,344 471.5,344 H 263 v -17 h 208.5 c 21.78,0 39.5,-17.72 39.5,-39.5 v -64 C 511,201.72 493.28,184 471.5,184 H 263 V 167 Z M 496,383.5 v 64 c 0,13.51 -10.991,24.5 -24.5,24.5 H 39.5 C 25.991,472 15,461.01 15,447.5 v -64 C 15,369.99 25.991,359 39.5,359 h 432 c 13.509,0 24.5,10.99 24.5,24.5 z m 0,-160 v 64 c 0,13.51 -10.991,24.5 -24.5,24.5 H 39.5 C 25.991,312 15,301.01 15,287.5 v -64 C 15,209.99 25.991,199 39.5,199 h 432 c 13.509,0 24.5,10.99 24.5,24.5 z m -481,-96 v -64 C 15,49.99 25.991,39 39.5,39 h 432 c 13.509,0 24.5,10.99 24.5,24.5 v 64 c 0,13.51 -10.991,24.5 -24.5,24.5 H 39.5 C 25.991,152 15,141.01 15,127.5 Z"
   id="path47" />
	<path
   d="M 71.5,64 C 54.131,64 40,78.131 40,95.5 40,112.869 54.131,127 71.5,127 88.869,127 103,112.869 103,95.5 103,78.131 88.869,64 71.5,64 Z m 0,48 C 62.402,112 55,104.598 55,95.5 55,86.402 62.402,79 71.5,79 80.598,79 88,86.402 88,95.5 88,104.598 80.598,112 71.5,112 Z"
   id="path48" />
	<path
   d="M 143.5,72 C 130.542,72 120,82.542 120,95.5 120,108.458 130.542,119 143.5,119 156.458,119 167,108.458 167,95.5 167,82.542 156.458,72 143.5,72 Z m 0,32 c -4.687,0 -8.5,-3.813 -8.5,-8.5 0,-4.687 3.813,-8.5 8.5,-8.5 4.687,0 8.5,3.813 8.5,8.5 0,4.687 -3.813,8.5 -8.5,8.5 z"
   id="path49" />
	<path
   d="M 71.5,224 C 54.131,224 40,238.131 40,255.5 40,272.869 54.131,287 71.5,287 88.869,287 103,272.869 103,255.5 103,238.131 88.869,224 71.5,224 Z m 0,48 C 62.402,272 55,264.598 55,255.5 55,246.402 62.402,239 71.5,239 c 9.098,0 16.5,7.402 16.5,16.5 0,9.098 -7.402,16.5 -16.5,16.5 z"
   id="path50" />
	<path
   d="m 143.5,232 c -12.958,0 -23.5,10.542 -23.5,23.5 0,12.958 10.542,23.5 23.5,23.5 12.958,0 23.5,-10.542 23.5,-23.5 0,-12.958 -10.542,-23.5 -23.5,-23.5 z m 0,32 c -4.687,0 -8.5,-3.813 -8.5,-8.5 0,-4.687 3.813,-8.5 8.5,-8.5 4.687,0 8.5,3.813 8.5,8.5 0,4.687 -3.813,8.5 -8.5,8.5 z"
   id="path51" />
	<path
   d="m 455.5,264 h -264 c -4.142,0 -7.5,3.357 -7.5,7.5 0,4.143 3.358,7.5 7.5,7.5 h 264 c 4.142,0 7.5,-3.357 7.5,-7.5 0,-4.143 -3.358,-7.5 -7.5,-7.5 z"
   id="path52" />
	<path
   d="m 184,239.5 c 0,4.143 3.358,7.5 7.5,7.5 h 264 c 4.142,0 7.5,-3.357 7.5,-7.5 0,-4.143 -3.358,-7.5 -7.5,-7.5 h -264 c -4.142,0 -7.5,3.357 -7.5,7.5 z"
   id="path53" />
	<path
   d="m 463,111.5 c 0,-4.143 -3.358,-7.5 -7.5,-7.5 h -264 c -4.142,0 -7.5,3.357 -7.5,7.5 0,4.143 3.358,7.5 7.5,7.5 h 264 c 4.142,0 7.5,-3.357 7.5,-7.5 z"
   id="path54" />
	<path
   d="m 191.5,87 h 264 c 4.142,0 7.5,-3.357 7.5,-7.5 0,-4.143 -3.358,-7.5 -7.5,-7.5 h -264 c -4.142,0 -7.5,3.357 -7.5,7.5 0,4.143 3.358,7.5 7.5,7.5 z"
   id="path55" />
	<path
   d="M 71.5,384 C 54.131,384 40,398.131 40,415.5 40,432.869 54.131,447 71.5,447 88.869,447 103,432.869 103,415.5 103,398.131 88.869,384 71.5,384 Z m 0,48 C 62.402,432 55,424.598 55,415.5 55,406.402 62.402,399 71.5,399 c 9.098,0 16.5,7.402 16.5,16.5 0,9.098 -7.402,16.5 -16.5,16.5 z"
   id="path56" />
	<path
   d="m 143.5,392 c -12.958,0 -23.5,10.542 -23.5,23.5 0,12.958 10.542,23.5 23.5,23.5 12.958,0 23.5,-10.542 23.5,-23.5 0,-12.958 -10.542,-23.5 -23.5,-23.5 z m 0,32 c -4.687,0 -8.5,-3.813 -8.5,-8.5 0,-4.687 3.813,-8.5 8.5,-8.5 4.687,0 8.5,3.813 8.5,8.5 0,4.687 -3.813,8.5 -8.5,8.5 z"
   id="path57" />
	<path
   d="m 455.5,424 h -264 c -4.142,0 -7.5,3.357 -7.5,7.5 0,4.143 3.358,7.5 7.5,7.5 h 264 c 4.142,0 7.5,-3.357 7.5,-7.5 0,-4.143 -3.358,-7.5 -7.5,-7.5 z"
   id="path58" />
	<path
   d="m 184,399.5 c 0,4.143 3.358,7.5 7.5,7.5 h 264 c 4.142,0 7.5,-3.357 7.5,-7.5 0,-4.143 -3.358,-7.5 -7.5,-7.5 h -264 c -4.142,0 -7.5,3.357 -7.5,7.5 z"
   id="path59" />
</g></g><text
             xml:space="preserve"
             style="font-weight:300;font-size:3.33717px;font-family:'Fira Code';-inkscape-font-specification:'Fira Code Light';fill:#ae9a9a;fill-opacity:1;stroke:none;stroke-width:0.125144;stroke-linecap:square"
             x="42.069736"
             y="260.53748"
             id="text60"><tspan
               sodipodi:role="line"
               id="tspan60"
               style="fill:#000000;fill-opacity:1;stroke-width:0.125144"
               x="42.069736"
               y="260.53748">Cliente</tspan></text><text
             xml:space="preserve"
             style="font-weight:300;font-size:3.33717px;font-family:'Fira Code';-inkscape-font-specification:'Fira Code Light';fill:#ae9a9a;fill-opacity:1;stroke:none;stroke-width:0.125144;stroke-linecap:square"
             x="166.47429"
             y="260.53748"
             id="text61"><tspan
               sodipodi:role="line"
               id="tspan61"
               style="fill:#000000;fill-opacity:1;stroke-width:0.125144"
               x="166.47429"
               y="260.53748">Servidor</tspan></text><rect
             style="fill:#bfffd4;fill-opacity:1;stroke:none;stroke-width:0.125144;stroke-linecap:square"
             id="rect61"
             width="52.861519"
             height="8.8102541"
             x="22.80106"
             y="265.56262" /><text
             xml:space="preserve"
             style="font-weight:300;font-size:3.33717px;font-family:'Fira Code';-inkscape-font-specification:'Fira Code Light';fill:#ae9a9a;fill-opacity:1;stroke:none;stroke-width:0.125144;stroke-linecap:square"
             x="41.151585"
             y="271.12637"
             id="text62"><tspan
               sodipodi:role="line"
               id="tspan62"
               style="fill:#000000;fill-opacity:1;stroke-width:0.125144"
               x="41.151585"
               y="271.12637">Socket()</tspan></text><rect
             style="fill:#c3c38d;fill-opacity:1;stroke:none;stroke-width:0.125144;stroke-linecap:square"
             id="rect62"
             width="52.861519"
             height="8.8102541"
             x="148.21361"
             y="265.56262" /><text
             xml:space="preserve"
             style="font-weight:300;font-size:3.33717px;font-family:'Fira Code';-inkscape-font-specification:'Fira Code Light';fill:#ae9a9a;fill-opacity:1;stroke:none;stroke-width:0.125144;stroke-linecap:square"
             x="166.56413"
             y="271.12637"
             id="text63"><tspan
               sodipodi:role="line"
               id="tspan63"
               style="fill:#000000;fill-opacity:1;stroke-width:0.125144"
               x="166.56413"
               y="271.12637">Socket()</tspan></text><rect
             style="fill:#c3c38d;fill-opacity:1;stroke:none;stroke-width:0.125144;stroke-linecap:square"
             id="rect63"
             width="52.861519"
             height="8.8102541"
             x="148.21361"
             y="276.14597" /><text
             xml:space="preserve"
             style="font-weight:300;font-size:3.33717px;font-family:'Fira Code';-inkscape-font-specification:'Fira Code Light';fill:#ae9a9a;fill-opacity:1;stroke:none;stroke-width:0.125144;stroke-linecap:square"
             x="168.5228"
             y="281.70969"
             id="text64"><tspan
               sodipodi:role="line"
               id="tspan64"
               style="fill:#000000;fill-opacity:1;stroke-width:0.125144"
               x="168.5228"
               y="281.70969">Bind()</tspan></text><rect
             style="fill:#bfffd4;fill-opacity:1;stroke:none;stroke-width:0.125144;stroke-linecap:square"
             id="rect67"
             width="52.861519"
             height="8.8102541"
             x="22.80106"
             y="286.72928" /><text
             xml:space="preserve"
             style="font-weight:300;font-size:3.33717px;font-family:'Fira Code';-inkscape-font-specification:'Fira Code Light';fill:#ae9a9a;fill-opacity:1;stroke:none;stroke-width:0.125144;stroke-linecap:square"
             x="41.151585"
             y="292.293"
             id="text68"><tspan
               sodipodi:role="line"
               id="tspan68"
               style="fill:#000000;fill-opacity:1;stroke-width:0.125144"
               x="41.151585"
               y="292.293">SendTo()</tspan></text><rect
             style="fill:#c3c38d;fill-opacity:1;stroke:none;stroke-width:0.125144;stroke-linecap:square"
             id="rect68"
             width="52.861519"
             height="8.8102541"
             x="148.21361"
             y="286.72928" /><text
             xml:space="preserve"
             style="font-weight:300;font-size:3.33717px;font-family:'Fira Code';-inkscape-font-specification:'Fira Code Light';fill:#ae9a9a;fill-opacity:1;stroke:none;stroke-width:0.125144;stroke-linecap:square"
             x="164.40524"
             y="292.293"
             id="text69"><tspan
               sodipodi:role="line"
               id="tspan69"
               style="fill:#000000;fill-opacity:1;stroke-width:0.125144"
               x="164.40524"
               y="292.293">RecvFrom()</tspan></text><rect
             style="fill:#bfffd4;fill-opacity:1;stroke:none;stroke-width:0.125144;stroke-linecap:square"
             id="rect69"
             width="52.861519"
             height="8.8102541"
             x="22.80106"
             y="297.31259" /><text
             xml:space="preserve"
             style="font-weight:300;font-size:3.33717px;font-family:'Fira Code';-inkscape-font-specification:'Fira Code Light';fill:#ae9a9a;fill-opacity:1;stroke:none;stroke-width:0.125144;stroke-linecap:square"
             x="38.992691"
             y="302.87631"
             id="text70"><tspan
               sodipodi:role="line"
               id="tspan70"
               style="fill:#000000;fill-opacity:1;stroke-width:0.125144"
               x="38.992691"
               y="302.87631">RecvFrom()</tspan></text><rect
             style="fill:#c3c38d;fill-opacity:1;stroke:none;stroke-width:0.125144;stroke-linecap:square"
             id="rect70"
             width="52.861519"
             height="8.8102541"
             x="148.21361"
             y="297.31259" /><text
             xml:space="preserve"
             style="font-weight:300;font-size:3.33717px;font-family:'Fira Code';-inkscape-font-specification:'Fira Code Light';fill:#ae9a9a;fill-opacity:1;stroke:none;stroke-width:0.125144;stroke-linecap:square"
             x="166.56413"
             y="302.87631"
             id="text71"><tspan
               sodipodi:role="line"
               id="tspan71"
               style="fill:#000000;fill-opacity:1;stroke-width:0.125144"
               x="166.56413"
               y="302.87631">SendTo()</tspan></text><text
             xml:space="preserve"
             style="font-weight:300;font-size:9.42948px;font-family:'Fira Code';-inkscape-font-specification:'Fira Code Light';fill:#ae9a9a;fill-opacity:1;stroke:none;stroke-width:0.353627;stroke-linecap:square"
             x="42.551392"
             y="315.12323"
             id="text72"><tspan
               sodipodi:role="line"
               id="tspan72"
               style="fill:#000000;fill-opacity:1;stroke-width:0.353627"
               x="42.551392"
               y="315.12323">...</tspan></text><rect
             style="fill:#bfffd4;fill-opacity:1;stroke:none;stroke-width:0.125144;stroke-linecap:square"
             id="rect72"
             width="52.861519"
             height="8.8102541"
             x="22.80106"
             y="318.47922" /><text
             xml:space="preserve"
             style="font-weight:300;font-size:3.33717px;font-family:'Fira Code';-inkscape-font-specification:'Fira Code Light';fill:#ae9a9a;fill-opacity:1;stroke:none;stroke-width:0.125144;stroke-linecap:square"
             x="42.145889"
             y="324.04294"
             id="text73"><tspan
               sodipodi:role="line"
               id="tspan73"
               style="fill:#000000;fill-opacity:1;stroke-width:0.125144"
               x="42.145889"
               y="324.04294">Close()</tspan></text><rect
             style="fill:#c3c38d;fill-opacity:1;stroke:none;stroke-width:0.125144;stroke-linecap:square"
             id="rect73"
             width="52.861519"
             height="8.8102541"
             x="148.21361"
             y="318.47922" /><text
             xml:space="preserve"
             style="font-weight:300;font-size:3.33717px;font-family:'Fira Code';-inkscape-font-specification:'Fira Code Light';fill:#ae9a9a;fill-opacity:1;stroke:none;stroke-width:0.125144;stroke-linecap:square"
             x="167.55844"
             y="324.04294"
             id="text74"><tspan
               sodipodi:role="line"
               id="tspan74"
               style="fill:#000000;fill-opacity:1;stroke-width:0.125144"
               x="167.55844"
               y="324.04294">Close()</tspan></text><path
             style="fill:#c3c38d;fill-opacity:1;stroke:#000000;stroke-width:0.396875;stroke-linecap:square;stroke-dasharray:none;marker-end:url(#ConcaveTriangle)"
             d="M 75.974507,291.18216 H 145.68965"
             id="path76"
             sodipodi:nodetypes="cc" /><path
             style="fill:#c3c38d;fill-opacity:1;stroke:#000000;stroke-width:0.396875;stroke-linecap:square;stroke-dasharray:none;marker-end:url(#ConcaveTriangle)"
             d="M 147.48118,301.74015 H 78.27336"
             id="path77"
             sodipodi:nodetypes="cc" /><path
             style="fill:#c3c38d;fill-opacity:1;stroke:#000000;stroke-width:0.396875;stroke-linecap:square;stroke-dasharray:none;marker-start:url(#marker44);marker-end:url(#ConcaveTriangle)"
             d="M 145.79018,322.90683 H 78.10426"
             id="path78"
             sodipodi:nodetypes="cc" /><text
             xml:space="preserve"
             style="font-weight:300;font-size:9.42948px;font-family:'Fira Code';-inkscape-font-specification:'Fira Code Light';fill:#ae9a9a;fill-opacity:1;stroke:none;stroke-width:0.353627;stroke-linecap:square"
             x="167.96394"
             y="315.12323"
             id="text78"><tspan
               sodipodi:role="line"
               id="tspan78"
               style="fill:#000000;fill-opacity:1;stroke-width:0.353627"
               x="167.96394"
               y="315.12323">...</tspan></text></g></g><text
         xml:space="preserve"
         style="font-weight:300;font-size:5.81274px;font-family:'Fira Code';-inkscape-font-specification:'Fira Code Light';fill:#ae9a9a;fill-opacity:1;stroke:none;stroke-width:0.217977;stroke-linecap:square"
         x="111.39746"
         y="235.76077"
         id="text80"><tspan
           sodipodi:role="line"
           id="tspan79"
           style="font-style:normal;font-variant:normal;font-weight:bold;font-stretch:normal;font-family:'Fira Code';-inkscape-font-specification:'Fira Code Bold';text-align:center;text-anchor:middle;fill:#000000;fill-opacity:1;stroke-width:0.217977"
           x="111.39746"
           y="235.76077">Datagram socket</tspan><tspan
           sodipodi:role="line"
           style="font-style:normal;font-variant:normal;font-weight:bold;font-stretch:normal;font-family:'Fira Code';-inkscape-font-specification:'Fira Code Bold';text-align:center;text-anchor:middle;fill:#000000;fill-opacity:1;stroke-width:0.217977"
           x="111.39746"
           y="243.0267"
           id="tspan80">UDP</tspan></text></g></g></svg>
