<?xml version="1.0" encoding="UTF-8" standalone="no"?>
<svg
   height="124mm"
   viewBox="0 0 1052.3615 439.36982"
   width="297mm"
   version="1.1"
   id="svg7"
   sodipodi:docname="tcpip_work.svg"
   xml:space="preserve"
   inkscape:version="1.4 (e7c3feb100, 2024-10-09)"
   inkscape:export-filename="tcpip_work.png"
   inkscape:export-xdpi="96"
   inkscape:export-ydpi="96"
   xmlns:inkscape="http://www.inkscape.org/namespaces/inkscape"
   xmlns:sodipodi="http://sodipodi.sourceforge.net/DTD/sodipodi-0.dtd"
   xmlns:xlink="http://www.w3.org/1999/xlink"
   xmlns="http://www.w3.org/2000/svg"
   xmlns:svg="http://www.w3.org/2000/svg"><defs
     id="defs7"><marker
       style="overflow:visible"
       id="ConcaveTriangle"
       refX="0"
       refY="0"
       orient="auto-start-reverse"
       inkscape:stockid="Concave triangle arrow"
       markerWidth="1"
       markerHeight="1"
       viewBox="0 0 1 1"
       inkscape:isstock="true"
       inkscape:collect="always"
       preserveAspectRatio="xMidYMid"><path
         transform="scale(0.7)"
         d="M -2,-4 9,0 -2,4 c 2,-2.33 2,-5.66 0,-8 z"
         style="fill:context-stroke;fill-rule:evenodd;stroke:none"
         id="path34" /></marker><linearGradient
       id="a-5"
       gradientUnits="userSpaceOnUse"
       x1="293.04984"
       x2="506.93872"
       y1="644.37274"
       y2="430.48386"
       gradientTransform="matrix(0.1523784,0,0,0.1523784,272.86465,404.42943)"><stop
         offset="0"
         stop-color="#4e505d"
         id="stop1-3"
         style="stop-color:#000000;stop-opacity:1;" /><stop
         offset="1"
         stop-color="#7a8597"
         id="stop2-5"
         style="stop-color:#30303e;stop-opacity:1;" /></linearGradient><linearGradient
       inkscape:collect="always"
       xlink:href="#a"
       id="linearGradient13"
       gradientUnits="userSpaceOnUse"
       gradientTransform="matrix(0.1523784,0,0,0.1523784,272.86465,404.42943)"
       x1="293.04984"
       y1="644.37274"
       x2="506.93872"
       y2="430.48386" /><linearGradient
       inkscape:collect="always"
       xlink:href="#a"
       id="linearGradient14"
       gradientUnits="userSpaceOnUse"
       gradientTransform="matrix(0.1523784,0,0,0.1523784,272.86465,404.42943)"
       x1="293.04984"
       y1="644.37274"
       x2="506.93872"
       y2="430.48386" /></defs><sodipodi:namedview
     id="namedview7"
     pagecolor="#ffffff"
     bordercolor="#000000"
     borderopacity="0.25"
     inkscape:showpageshadow="2"
     inkscape:pageopacity="0.0"
     inkscape:pagecheckerboard="0"
     inkscape:deskcolor="#d1d1d1"
     inkscape:document-units="mm"
     inkscape:zoom="0.8564175"
     inkscape:cx="636.37187"
     inkscape:cy="375.98485"
     inkscape:window-width="2560"
     inkscape:window-height="1389"
     inkscape:window-x="0"
     inkscape:window-y="27"
     inkscape:window-maximized="1"
     inkscape:current-layer="svg7" /><linearGradient
     id="a"
     gradientUnits="userSpaceOnUse"
     x1="293.04984"
     x2="506.93872"
     y1="644.37274"
     y2="430.48386"
     gradientTransform="matrix(0.1523784,0,0,0.1523784,272.86465,404.42943)"><stop
       offset="0"
       stop-color="#4e505d"
       id="stop1"
       style="stop-color:#000000;stop-opacity:1;" /><stop
       offset="1"
       stop-color="#7a8597"
       id="stop2"
       style="stop-color:#30303e;stop-opacity:1;" /></linearGradient><g
     id="g8"
     transform="matrix(1.027597,0,0,1.027597,37.374813,-396.66714)"><path
       d="m 301.81655,453.55047 h 60.95136 v 60.95136 h -60.95136 z"
       fill="none"
       id="path2"
       style="stroke-width:0.152378" /><path
       d="m 332.33368,461.13663 a 26.66622,16.296023 0 0 0 -26.66622,16.29602 26.66622,16.296023 0 0 0 26.66622,16.29602 26.66622,16.296023 0 0 0 26.66622,-16.29602 26.66622,16.296023 0 0 0 -26.66622,-16.29602 z m -25.65466,24.93013 c -0.40704,-0.0118 -0.737,0.32723 -0.71411,0.73379 l 0.59258,10.30307 c 0.006,0.11022 0.0389,0.21734 0.0949,0.31249 0,0 1.51113,2.53303 5.44551,4.9652 3.93438,2.43216 10.32916,4.82862 20.17095,4.82862 9.84181,0 16.23774,-2.39646 20.17212,-4.82862 3.93438,-2.43217 5.44551,-4.9652 5.44551,-4.9652 0.0522,-0.0883 0.0842,-0.18716 0.0937,-0.28935 l 0.88888,-9.85979 c 0.0655,-0.72043 -0.87607,-1.04913 -1.27313,-0.44443 0,0 -1.49739,2.29787 -5.43625,4.68048 -3.93886,2.3826 -10.27808,4.79274 -19.89088,4.79274 -9.60749,0 -15.86362,-2.51694 -19.72535,-5.00455 -3.86175,-2.4876 -5.28927,-4.8888 -5.28927,-4.8888 -0.12216,-0.20245 -0.33887,-0.3289 -0.57522,-0.33565 z"
       fill="url(#a)"
       id="path3"
       style="fill:url(#linearGradient14);stroke-width:0.152378" /><path
       d="m 329.33887,487.54718 h 5.92583 v -5.74907 h 2.96291 l -5.92582,-3.83271 -5.92583,3.83271 h 2.96291 z"
       id="path4"
       style="fill:#ffffff;fill-rule:evenodd;stroke-width:14.2971;stroke-linejoin:round" /><path
       d="m 335.2647,465.22829 h -5.92583 v 5.74907 h -2.96291 l 5.92583,3.83271 5.92582,-3.83271 h -2.96291 z"
       id="path5"
       style="fill:#ffffff;fill-rule:evenodd;stroke-width:14.2971;stroke-linejoin:round" /><path
       d="m 337.02705,474.40363 v 3.83271 h 8.88874 v 1.91635 l 5.92582,-3.83271 -5.92582,-3.83271 v 1.91636 z"
       id="path6"
       style="fill:#ffffff;fill-rule:evenodd;stroke-width:14.2971;stroke-linejoin:round" /><path
       d="m 327.36702,478.30409 v -3.83271 h -8.88874 v -1.91636 l -5.92583,3.83272 5.92583,3.83271 v -1.91636 z"
       id="path7"
       style="fill:#ffffff;fill-rule:evenodd;stroke-width:14.2971;stroke-linejoin:round" /></g><g
     id="g1"
     transform="matrix(2.2475506,0,0,2.2475506,59.324872,58.971771)">
	<path
   style="fill:#010002"
   d="m 32.335,11.606 h -6.533 v -1.009 h 6.533 z m 0,0.658 h -6.533 v 1.011 h 6.533 z M 32.331,7.687 H 25.808 V 9.91 h 6.523 z m 2.087,-2.39 v 23.827 c -10e-4,0.357 -0.292,0.648 -0.65,0.648 h -9.397 c -0.359,0 -0.649,-0.291 -0.649,-0.649 V 5.297 c 0,-0.358 0.29,-0.65 0.649,-0.65 h 9.397 c 0.359,0 0.65,0.292 0.65,0.65 z m -1.299,0.647 h -8.1 v 22.53 h 8.1 z m -0.784,7.988 h -6.533 v 1.008 h 6.533 z m -1.063,7.518 c 0,1.162 -0.939,2.099 -2.097,2.099 -1.16,0 -2.099,-0.938 -2.099,-2.099 0,-1.158 0.94,-2.098 2.099,-2.098 1.158,0 2.097,0.941 2.097,2.098 z m -0.757,0 c 0,-0.739 -0.6,-1.341 -1.341,-1.341 -0.742,0 -1.342,0.601 -1.342,1.341 0,0.74 0.6,1.34 1.342,1.34 0.741,0 1.341,-0.6 1.341,-1.34 z M 21.937,9.218 v 13.505 c 0,0.814 -0.655,1.473 -1.461,1.473 H 13.18 c 0,0 -0.414,2.948 2.212,2.948 v 1.475 H 13.18 8.758 6.546 v -1.473 c 2.529,0 2.212,-2.948 2.212,-2.948 H 1.465 C 0.656,24.198 0,23.539 0,22.725 V 9.218 C 0,8.404 0.656,7.748 1.465,7.748 h 19.01 c 0.807,0 1.462,0.656 1.462,1.47 z m -9.605,13.176 c 0,-0.698 -0.566,-1.263 -1.264,-1.263 -0.699,0 -1.266,0.565 -1.266,1.263 0,0.698 0.566,1.265 1.266,1.265 0.699,0 1.264,-0.567 1.264,-1.265 z M 20.371,9.311 H 1.568 v 11.387 h 18.802 10e-4 c 0,0 0,-11.387 0,-11.387 z m -9.29,12.292 c -0.434,0 -0.785,0.352 -0.785,0.785 0,0.433 0.352,0.785 0.785,0.785 0.433,0 0.785,-0.352 0.785,-0.785 0,-0.433 -0.351,-0.785 -0.785,-0.785 z"
   id="path1" />
</g><g
     id="g13"
     transform="matrix(1.027597,0,0,1.027597,318.20919,-396.66714)"><path
       d="m 301.81655,453.55047 h 60.95136 v 60.95136 h -60.95136 z"
       fill="none"
       id="path8"
       style="stroke-width:0.152378" /><path
       d="m 332.33368,461.13663 a 26.66622,16.296023 0 0 0 -26.66622,16.29602 26.66622,16.296023 0 0 0 26.66622,16.29602 26.66622,16.296023 0 0 0 26.66622,-16.29602 26.66622,16.296023 0 0 0 -26.66622,-16.29602 z m -25.65466,24.93013 c -0.40704,-0.0118 -0.737,0.32723 -0.71411,0.73379 l 0.59258,10.30307 c 0.006,0.11022 0.0389,0.21734 0.0949,0.31249 0,0 1.51113,2.53303 5.44551,4.9652 3.93438,2.43216 10.32916,4.82862 20.17095,4.82862 9.84181,0 16.23774,-2.39646 20.17212,-4.82862 3.93438,-2.43217 5.44551,-4.9652 5.44551,-4.9652 0.0522,-0.0883 0.0842,-0.18716 0.0937,-0.28935 l 0.88888,-9.85979 c 0.0655,-0.72043 -0.87607,-1.04913 -1.27313,-0.44443 0,0 -1.49739,2.29787 -5.43625,4.68048 -3.93886,2.3826 -10.27808,4.79274 -19.89088,4.79274 -9.60749,0 -15.86362,-2.51694 -19.72535,-5.00455 -3.86175,-2.4876 -5.28927,-4.8888 -5.28927,-4.8888 -0.12216,-0.20245 -0.33887,-0.3289 -0.57522,-0.33565 z"
       fill="url(#a)"
       id="path9"
       style="fill:url(#linearGradient13);stroke-width:0.152378" /><path
       d="m 329.33887,487.54718 h 5.92583 v -5.74907 h 2.96291 l -5.92582,-3.83271 -5.92583,3.83271 h 2.96291 z"
       id="path10"
       style="fill:#ffffff;fill-rule:evenodd;stroke-width:14.2971;stroke-linejoin:round" /><path
       d="m 335.2647,465.22829 h -5.92583 v 5.74907 h -2.96291 l 5.92583,3.83271 5.92582,-3.83271 h -2.96291 z"
       id="path11"
       style="fill:#ffffff;fill-rule:evenodd;stroke-width:14.2971;stroke-linejoin:round" /><path
       d="m 337.02705,474.40363 v 3.83271 h 8.88874 v 1.91635 l 5.92582,-3.83271 -5.92582,-3.83271 v 1.91636 z"
       id="path12"
       style="fill:#ffffff;fill-rule:evenodd;stroke-width:14.2971;stroke-linejoin:round" /><path
       d="m 327.36702,478.30409 v -3.83271 h -8.88874 v -1.91636 l -5.92583,3.83272 5.92583,3.83271 v -1.91636 z"
       id="path13"
       style="fill:#ffffff;fill-rule:evenodd;stroke-width:14.2971;stroke-linejoin:round" /></g><g
     id="g14"
     transform="matrix(2.2475506,0,0,2.2475506,916.60869,58.971771)">
	<path
   style="fill:#010002"
   d="m 32.335,11.606 h -6.533 v -1.009 h 6.533 z m 0,0.658 h -6.533 v 1.011 h 6.533 z M 32.331,7.687 H 25.808 V 9.91 h 6.523 z m 2.087,-2.39 v 23.827 c -10e-4,0.357 -0.292,0.648 -0.65,0.648 h -9.397 c -0.359,0 -0.649,-0.291 -0.649,-0.649 V 5.297 c 0,-0.358 0.29,-0.65 0.649,-0.65 h 9.397 c 0.359,0 0.65,0.292 0.65,0.65 z m -1.299,0.647 h -8.1 v 22.53 h 8.1 z m -0.784,7.988 h -6.533 v 1.008 h 6.533 z m -1.063,7.518 c 0,1.162 -0.939,2.099 -2.097,2.099 -1.16,0 -2.099,-0.938 -2.099,-2.099 0,-1.158 0.94,-2.098 2.099,-2.098 1.158,0 2.097,0.941 2.097,2.098 z m -0.757,0 c 0,-0.739 -0.6,-1.341 -1.341,-1.341 -0.742,0 -1.342,0.601 -1.342,1.341 0,0.74 0.6,1.34 1.342,1.34 0.741,0 1.341,-0.6 1.341,-1.34 z M 21.937,9.218 v 13.505 c 0,0.814 -0.655,1.473 -1.461,1.473 H 13.18 c 0,0 -0.414,2.948 2.212,2.948 v 1.475 H 13.18 8.758 6.546 v -1.473 c 2.529,0 2.212,-2.948 2.212,-2.948 H 1.465 C 0.656,24.198 0,23.539 0,22.725 V 9.218 C 0,8.404 0.656,7.748 1.465,7.748 h 19.01 c 0.807,0 1.462,0.656 1.462,1.47 z m -9.605,13.176 c 0,-0.698 -0.566,-1.263 -1.264,-1.263 -0.699,0 -1.266,0.565 -1.266,1.263 0,0.698 0.566,1.265 1.266,1.265 0.699,0 1.264,-0.567 1.264,-1.265 z M 20.371,9.311 H 1.568 v 11.387 h 18.802 10e-4 c 0,0 0,-11.387 0,-11.387 z m -9.29,12.292 c -0.434,0 -0.785,0.352 -0.785,0.785 0,0.433 0.352,0.785 0.785,0.785 0.433,0 0.785,-0.352 0.785,-0.785 0,-0.433 -0.351,-0.785 -0.785,-0.785 z"
   id="path14" />
</g><rect
     style="fill:#ffbfbf;fill-opacity:1;stroke:none;stroke-width:0.443423;stroke-linecap:square"
     id="rect14"
     width="187.30449"
     height="31.217417"
     x="4.3507318"
     y="165.35043" /><rect
     style="fill:#cabfff;fill-opacity:1;stroke:none;stroke-width:0.443423;stroke-linecap:square"
     id="rect15"
     width="187.30449"
     height="31.217417"
     x="4.3507318"
     y="197.86812" /><rect
     style="fill:#bfffd4;fill-opacity:1;stroke:none;stroke-width:0.443423;stroke-linecap:square"
     id="rect16"
     width="187.30449"
     height="31.217417"
     x="4.3507318"
     y="230.3858" /><rect
     style="fill:#ae9a9a;fill-opacity:1;stroke:none;stroke-width:0.443423;stroke-linecap:square"
     id="rect17"
     width="187.30449"
     height="31.217417"
     x="4.3507318"
     y="262.90341" /><text
     xml:space="preserve"
     style="font-weight:300;font-size:11.8246px;font-family:'Fira Code';-inkscape-font-specification:'Fira Code Light';fill:#ae9a9a;fill-opacity:1;stroke:none;stroke-width:0.443423;stroke-linecap:square"
     x="62.092533"
     y="184.455"
     id="text17"><tspan
       sodipodi:role="line"
       id="tspan17"
       style="fill:#000000;fill-opacity:1;stroke-width:0.443423"
       x="62.092533"
       y="184.455">Aplicación</tspan></text><text
     xml:space="preserve"
     style="font-weight:300;font-size:11.8246px;font-family:'Fira Code';-inkscape-font-specification:'Fira Code Light';fill:#ae9a9a;fill-opacity:1;stroke:none;stroke-width:0.443423;stroke-linecap:square"
     x="61.874241"
     y="216.37537"
     id="text18"><tspan
       sodipodi:role="line"
       id="tspan18"
       style="fill:#000000;fill-opacity:1;stroke-width:0.443423"
       x="61.874241"
       y="216.37537">Transporte</tspan></text><text
     xml:space="preserve"
     style="font-weight:300;font-size:11.8246px;font-family:'Fira Code';-inkscape-font-specification:'Fira Code Light';fill:#ae9a9a;fill-opacity:1;stroke:none;stroke-width:0.443423;stroke-linecap:square"
     x="68.765854"
     y="250.09978"
     id="text19"><tspan
       sodipodi:role="line"
       id="tspan19"
       style="fill:#000000;fill-opacity:1;stroke-width:0.443423"
       x="68.765854"
       y="250.09978">Interret</tspan></text><text
     xml:space="preserve"
     style="font-weight:300;font-size:11.8246px;font-family:'Fira Code';-inkscape-font-specification:'Fira Code Light';fill:#ae9a9a;fill-opacity:1;stroke:none;stroke-width:0.443423;stroke-linecap:square"
     x="61.71962"
     y="282.97214"
     id="text20"><tspan
       sodipodi:role="line"
       id="tspan20"
       style="fill:#000000;fill-opacity:1;stroke-width:0.443423"
       x="61.71962"
       y="282.97214">Host a red</tspan></text><rect
     style="fill:#bfffd4;fill-opacity:1;stroke:none;stroke-width:0.443423;stroke-linecap:square"
     id="rect20"
     width="187.30449"
     height="31.217417"
     x="285.18509"
     y="230.3858" /><rect
     style="fill:#ae9a9a;fill-opacity:1;stroke:none;stroke-width:0.443423;stroke-linecap:square"
     id="rect21"
     width="187.30449"
     height="31.217417"
     x="285.18509"
     y="262.90341" /><text
     xml:space="preserve"
     style="font-weight:300;font-size:11.8246px;font-family:'Fira Code';-inkscape-font-specification:'Fira Code Light';fill:#ae9a9a;fill-opacity:1;stroke:none;stroke-width:0.443423;stroke-linecap:square"
     x="349.60022"
     y="250.09978"
     id="text21"><tspan
       sodipodi:role="line"
       id="tspan21"
       style="fill:#000000;fill-opacity:1;stroke-width:0.443423"
       x="349.60022"
       y="250.09978">Interret</tspan></text><text
     xml:space="preserve"
     style="font-weight:300;font-size:11.8246px;font-family:'Fira Code';-inkscape-font-specification:'Fira Code Light';fill:#ae9a9a;fill-opacity:1;stroke:none;stroke-width:0.443423;stroke-linecap:square"
     x="342.55396"
     y="282.97214"
     id="text22"><tspan
       sodipodi:role="line"
       id="tspan22"
       style="fill:#000000;fill-opacity:1;stroke-width:0.443423"
       x="342.55396"
       y="282.97214">Host a red</tspan></text><rect
     style="fill:#bfffd4;fill-opacity:1;stroke:none;stroke-width:0.443423;stroke-linecap:square"
     id="rect22"
     width="187.30449"
     height="31.217417"
     x="566.01947"
     y="230.3858" /><rect
     style="fill:#ae9a9a;fill-opacity:1;stroke:none;stroke-width:0.443423;stroke-linecap:square"
     id="rect23"
     width="187.30449"
     height="31.217417"
     x="566.01947"
     y="262.90341" /><text
     xml:space="preserve"
     style="font-weight:300;font-size:11.8246px;font-family:'Fira Code';-inkscape-font-specification:'Fira Code Light';fill:#ae9a9a;fill-opacity:1;stroke:none;stroke-width:0.443423;stroke-linecap:square"
     x="630.43463"
     y="250.09978"
     id="text23"><tspan
       sodipodi:role="line"
       id="tspan23"
       style="fill:#000000;fill-opacity:1;stroke-width:0.443423"
       x="630.43463"
       y="250.09978">Interret</tspan></text><text
     xml:space="preserve"
     style="font-weight:300;font-size:11.8246px;font-family:'Fira Code';-inkscape-font-specification:'Fira Code Light';fill:#ae9a9a;fill-opacity:1;stroke:none;stroke-width:0.443423;stroke-linecap:square"
     x="623.38831"
     y="282.97214"
     id="text24"><tspan
       sodipodi:role="line"
       id="tspan24"
       style="fill:#000000;fill-opacity:1;stroke-width:0.443423"
       x="623.38831"
       y="282.97214">Host a red</tspan></text><rect
     style="fill:#ffbfbf;fill-opacity:1;stroke:none;stroke-width:0.443423;stroke-linecap:square"
     id="rect24"
     width="187.30449"
     height="31.217417"
     x="861.63458"
     y="165.35043" /><rect
     style="fill:#cabfff;fill-opacity:1;stroke:none;stroke-width:0.443423;stroke-linecap:square"
     id="rect25"
     width="187.30449"
     height="31.217417"
     x="861.63458"
     y="197.86812" /><rect
     style="fill:#bfffd4;fill-opacity:1;stroke:none;stroke-width:0.443423;stroke-linecap:square"
     id="rect26"
     width="187.30449"
     height="31.217417"
     x="861.63458"
     y="230.3858" /><rect
     style="fill:#ae9a9a;fill-opacity:1;stroke:none;stroke-width:0.443423;stroke-linecap:square"
     id="rect27"
     width="187.30449"
     height="31.217417"
     x="861.63458"
     y="262.90341" /><text
     xml:space="preserve"
     style="font-weight:300;font-size:11.8246px;font-family:'Fira Code';-inkscape-font-specification:'Fira Code Light';fill:#ae9a9a;fill-opacity:1;stroke:none;stroke-width:0.443423;stroke-linecap:square"
     x="919.37646"
     y="184.455"
     id="text27"><tspan
       sodipodi:role="line"
       id="tspan27"
       style="fill:#000000;fill-opacity:1;stroke-width:0.443423"
       x="919.37646"
       y="184.455">Aplicación</tspan></text><text
     xml:space="preserve"
     style="font-weight:300;font-size:11.8246px;font-family:'Fira Code';-inkscape-font-specification:'Fira Code Light';fill:#ae9a9a;fill-opacity:1;stroke:none;stroke-width:0.443423;stroke-linecap:square"
     x="919.15808"
     y="216.37537"
     id="text28"><tspan
       sodipodi:role="line"
       id="tspan28"
       style="fill:#000000;fill-opacity:1;stroke-width:0.443423"
       x="919.15808"
       y="216.37537">Transporte</tspan></text><text
     xml:space="preserve"
     style="font-weight:300;font-size:11.8246px;font-family:'Fira Code';-inkscape-font-specification:'Fira Code Light';fill:#ae9a9a;fill-opacity:1;stroke:none;stroke-width:0.443423;stroke-linecap:square"
     x="926.04968"
     y="250.09978"
     id="text29"><tspan
       sodipodi:role="line"
       id="tspan29"
       style="fill:#000000;fill-opacity:1;stroke-width:0.443423"
       x="926.04968"
       y="250.09978">Interret</tspan></text><text
     xml:space="preserve"
     style="font-weight:300;font-size:11.8246px;font-family:'Fira Code';-inkscape-font-specification:'Fira Code Light';fill:#ae9a9a;fill-opacity:1;stroke:none;stroke-width:0.443423;stroke-linecap:square"
     x="919.00342"
     y="282.97214"
     id="text30"><tspan
       sodipodi:role="line"
       id="tspan30"
       style="fill:#000000;fill-opacity:1;stroke-width:0.443423"
       x="919.00342"
       y="282.97214">Host a red</tspan></text><path
     style="fill:none;fill-opacity:1;stroke:#000000;stroke-width:1.96257;stroke-linecap:square;stroke-dasharray:none;stroke-opacity:1"
     d="m 129.55953,295.00752 27.5662,35.83529 h 147.63771 l 47.82793,-35.89675"
     id="path30" /><path
     style="fill:none;fill-opacity:1;stroke:#000000;stroke-width:1.96257;stroke-linecap:square;stroke-dasharray:none;stroke-opacity:1"
     d="m 408.9158,295.00752 27.56619,35.83529 h 147.63772 l 47.82793,-35.89675"
     id="path31" /><path
     style="fill:none;fill-opacity:1;stroke:#000000;stroke-width:1.96257;stroke-linecap:square;stroke-dasharray:none;stroke-opacity:1"
     d="m 704.53091,295.00752 27.5662,35.83529 h 147.63774 l 47.82792,-35.89675"
     id="path32" /><path
     style="fill:none;fill-opacity:1;stroke:#000000;stroke-width:1.47808;stroke-linecap:square;stroke-dasharray:none;stroke-opacity:1;marker-end:url(#ConcaveTriangle)"
     d="M 144.84718,383.42934 H 898.94904"
     id="path33" /><rect
     style="fill:#ffbfbf;fill-opacity:1;stroke:none;stroke-width:0.443423;stroke-linecap:square"
     id="rect1"
     width="187.30449"
     height="31.217417"
     x="1067.8845"
     y="165.35043" /><rect
     style="fill:#ffd0d0;fill-opacity:1;stroke:none;stroke-width:0.443423;stroke-linecap:square"
     id="rect2"
     width="187.30449"
     height="31.217417"
     x="1067.8845"
     y="197.86812" /><rect
     style="fill:#ffe9e9;fill-opacity:1;stroke:none;stroke-width:0.443423;stroke-linecap:square"
     id="rect3"
     width="187.30449"
     height="31.217417"
     x="1067.8845"
     y="230.3858" /><text
     xml:space="preserve"
     style="font-weight:300;font-size:11.8246px;font-family:'Fira Code';-inkscape-font-specification:'Fira Code Light';fill:#ae9a9a;fill-opacity:1;stroke:none;stroke-width:0.443423;stroke-linecap:square"
     x="1125.6263"
     y="184.455"
     id="text3"><tspan
       sodipodi:role="line"
       id="tspan3"
       style="fill:#000000;fill-opacity:1;stroke-width:0.443423"
       x="1125.6263"
       y="184.455">Aplicación</tspan></text><text
     xml:space="preserve"
     style="font-weight:300;font-size:11.8246px;font-family:'Fira Code';-inkscape-font-specification:'Fira Code Light';fill:#ae9a9a;fill-opacity:1;stroke:none;stroke-width:0.443423;stroke-linecap:square"
     x="1117.7341"
     y="216.37537"
     id="text4"><tspan
       sodipodi:role="line"
       id="tspan4"
       style="fill:#000000;fill-opacity:1;stroke-width:0.443423"
       x="1117.7341"
       y="216.37537">Presentación</tspan></text><text
     xml:space="preserve"
     style="font-weight:300;font-size:11.8246px;font-family:'Fira Code';-inkscape-font-specification:'Fira Code Light';fill:#ae9a9a;fill-opacity:1;stroke:none;stroke-width:0.443423;stroke-linecap:square"
     x="1140.0403"
     y="250.09978"
     id="text5"><tspan
       sodipodi:role="line"
       id="tspan5"
       style="fill:#000000;fill-opacity:1;stroke-width:0.443423"
       x="1140.0403"
       y="250.09978">Sesión</tspan></text><rect
     style="fill:#cabfff;fill-opacity:1;stroke:none;stroke-width:0.443423;stroke-linecap:square"
     id="rect5"
     width="187.30449"
     height="31.217417"
     x="1067.8845"
     y="263.49307" /><rect
     style="fill:#bfffd4;fill-opacity:1;stroke:none;stroke-width:0.443423;stroke-linecap:square"
     id="rect6"
     width="187.30449"
     height="31.217417"
     x="1067.8845"
     y="296.01077" /><text
     xml:space="preserve"
     style="font-weight:300;font-size:11.8246px;font-family:'Fira Code';-inkscape-font-specification:'Fira Code Light';fill:#ae9a9a;fill-opacity:1;stroke:none;stroke-width:0.443423;stroke-linecap:square"
     x="1125.4081"
     y="282.00034"
     id="text6"><tspan
       sodipodi:role="line"
       id="tspan6"
       style="fill:#000000;fill-opacity:1;stroke-width:0.443423"
       x="1125.4081"
       y="282.00034">Transporte</tspan></text><text
     xml:space="preserve"
     style="font-weight:300;font-size:11.8246px;font-family:'Fira Code';-inkscape-font-specification:'Fira Code Light';fill:#ae9a9a;fill-opacity:1;stroke:none;stroke-width:0.443423;stroke-linecap:square"
     x="1132.2997"
     y="315.72476"
     id="text7"><tspan
       sodipodi:role="line"
       id="tspan7"
       style="fill:#000000;fill-opacity:1;stroke-width:0.443423"
       x="1132.2997"
       y="315.72476">Interret</tspan></text><rect
     style="fill:#d3c8c8;fill-opacity:1;stroke:none;stroke-width:0.443423;stroke-linecap:square"
     id="rect8"
     width="187.30449"
     height="31.217417"
     x="1067.8845"
     y="328.7662" /><text
     xml:space="preserve"
     style="font-weight:300;font-size:11.8246px;font-family:'Fira Code';-inkscape-font-specification:'Fira Code Light';fill:#ae9a9a;fill-opacity:1;stroke:none;stroke-width:0.443423;stroke-linecap:square"
     x="1139.4156"
     y="348.83493"
     id="text9"><tspan
       sodipodi:role="line"
       id="tspan9"
       style="fill:#000000;fill-opacity:1;stroke-width:0.443423"
       x="1139.4156"
       y="348.83493">Enlace</tspan></text><rect
     style="fill:#ae9a9a;fill-opacity:1;stroke:none;stroke-width:0.443423;stroke-linecap:square"
     id="rect9"
     width="187.30449"
     height="31.217417"
     x="1067.8845"
     y="361.2883" /><text
     xml:space="preserve"
     style="font-weight:300;font-size:11.8246px;font-family:'Fira Code';-inkscape-font-specification:'Fira Code Light';fill:#ae9a9a;fill-opacity:1;stroke:none;stroke-width:0.443423;stroke-linecap:square"
     x="1139.3519"
     y="381.35703"
     id="text10"><tspan
       sodipodi:role="line"
       id="tspan10"
       style="fill:#000000;fill-opacity:1;stroke-width:0.443423"
       x="1139.3519"
       y="381.35703">Física</tspan></text><rect
     style="fill:#ffbfbf;fill-opacity:1;stroke:none;stroke-width:0.443423;stroke-linecap:square"
     id="rect10"
     width="187.30449"
     height="31.217417"
     x="1067.8845"
     y="165.35043" /><rect
     style="fill:#ffd0d0;fill-opacity:1;stroke:none;stroke-width:0.443423;stroke-linecap:square"
     id="rect11"
     width="187.30449"
     height="31.217417"
     x="1067.8845"
     y="197.86812" /><rect
     style="fill:#ffe9e9;fill-opacity:1;stroke:none;stroke-width:0.443423;stroke-linecap:square"
     id="rect12"
     width="187.30449"
     height="31.217417"
     x="1067.8845"
     y="230.3858" /><text
     xml:space="preserve"
     style="font-weight:300;font-size:11.8246px;font-family:'Fira Code';-inkscape-font-specification:'Fira Code Light';fill:#ae9a9a;fill-opacity:1;stroke:none;stroke-width:0.443423;stroke-linecap:square"
     x="1125.6263"
     y="184.455"
     id="text12"><tspan
       sodipodi:role="line"
       id="tspan12"
       style="fill:#000000;fill-opacity:1;stroke-width:0.443423"
       x="1125.6263"
       y="184.455">Aplicación</tspan></text><text
     xml:space="preserve"
     style="font-weight:300;font-size:11.8246px;font-family:'Fira Code';-inkscape-font-specification:'Fira Code Light';fill:#ae9a9a;fill-opacity:1;stroke:none;stroke-width:0.443423;stroke-linecap:square"
     x="1117.7341"
     y="216.37537"
     id="text13"><tspan
       sodipodi:role="line"
       id="tspan13"
       style="fill:#000000;fill-opacity:1;stroke-width:0.443423"
       x="1117.7341"
       y="216.37537">Presentación</tspan></text><text
     xml:space="preserve"
     style="font-weight:300;font-size:11.8246px;font-family:'Fira Code';-inkscape-font-specification:'Fira Code Light';fill:#ae9a9a;fill-opacity:1;stroke:none;stroke-width:0.443423;stroke-linecap:square"
     x="1140.0403"
     y="250.09978"
     id="text14"><tspan
       sodipodi:role="line"
       id="tspan14"
       style="fill:#000000;fill-opacity:1;stroke-width:0.443423"
       x="1140.0403"
       y="250.09978">Sesión</tspan></text><rect
     style="fill:#cabfff;fill-opacity:1;stroke:none;stroke-width:0.443423;stroke-linecap:square"
     id="rect18"
     width="187.30449"
     height="31.217417"
     x="1067.8845"
     y="263.49307" /><rect
     style="fill:#bfffd4;fill-opacity:1;stroke:none;stroke-width:0.443423;stroke-linecap:square"
     id="rect19"
     width="187.30449"
     height="31.217417"
     x="1067.8845"
     y="296.01077" /><text
     xml:space="preserve"
     style="font-weight:300;font-size:11.8246px;font-family:'Fira Code';-inkscape-font-specification:'Fira Code Light';fill:#ae9a9a;fill-opacity:1;stroke:none;stroke-width:0.443423;stroke-linecap:square"
     x="1125.4081"
     y="282.00034"
     id="text25"><tspan
       sodipodi:role="line"
       id="tspan25"
       style="fill:#000000;fill-opacity:1;stroke-width:0.443423"
       x="1125.4081"
       y="282.00034">Transporte</tspan></text><text
     xml:space="preserve"
     style="font-weight:300;font-size:11.8246px;font-family:'Fira Code';-inkscape-font-specification:'Fira Code Light';fill:#ae9a9a;fill-opacity:1;stroke:none;stroke-width:0.443423;stroke-linecap:square"
     x="1150.5914"
     y="315.72476"
     id="text26"><tspan
       sodipodi:role="line"
       id="tspan26"
       style="fill:#000000;fill-opacity:1;stroke-width:0.443423"
       x="1150.5914"
       y="315.72476">Red</tspan></text><rect
     style="fill:#d3c8c8;fill-opacity:1;stroke:none;stroke-width:0.443423;stroke-linecap:square"
     id="rect28"
     width="187.30449"
     height="31.217417"
     x="1067.8845"
     y="328.7662" /><text
     xml:space="preserve"
     style="font-weight:300;font-size:11.8246px;font-family:'Fira Code';-inkscape-font-specification:'Fira Code Light';fill:#ae9a9a;fill-opacity:1;stroke:none;stroke-width:0.443423;stroke-linecap:square"
     x="1139.4156"
     y="348.83493"
     id="text31"><tspan
       sodipodi:role="line"
       id="tspan31"
       style="fill:#000000;fill-opacity:1;stroke-width:0.443423"
       x="1139.4156"
       y="348.83493">Enlace</tspan></text><rect
     style="fill:#ae9a9a;fill-opacity:1;stroke:none;stroke-width:0.443423;stroke-linecap:square"
     id="rect31"
     width="187.30449"
     height="31.217417"
     x="1067.8845"
     y="361.2883" /><text
     xml:space="preserve"
     style="font-weight:300;font-size:11.8246px;font-family:'Fira Code';-inkscape-font-specification:'Fira Code Light';fill:#ae9a9a;fill-opacity:1;stroke:none;stroke-width:0.443423;stroke-linecap:square"
     x="1139.3519"
     y="381.35703"
     id="text32"><tspan
       sodipodi:role="line"
       id="tspan32"
       style="fill:#000000;fill-opacity:1;stroke-width:0.443423"
       x="1139.3519"
       y="381.35703">Física</tspan></text></svg>
